:FULLY-SPECIFIED
:FORCE-ALL-JOINTS-BE-3DOF
:DEGREES
2141
root -2.36866 15.2668 -0.104309 -177.351 6.72177 -172.181
lfemur -54.5466 18.9702 -23.1405
ltibia 39.7396 -0 0
lfoot 9.81716 19.7083 -0.310519
ltoes 6.06643 -0 0
rfemur 3.9087 -2.56831 26.7928
rtibia 42.3127 -0 0
rfoot -19.297 6.04725 -0.0820533
rtoes -30.3744 0 0
lowerback 9.28105 0.962515 1.01085
upperback -2.26895 1.86148 3.74958
thorax -7.59276 1.01458 3.13621
lowerneck -5.95657 -1.25785 -5.86013
upperneck 8.72374 -1.50778 3.48496
head 3.89959 -0.798171 2.02969
lclavicle -2.85753e-15 1.39149e-15 0
lhumerus 57.0299 -7.0098 98.8939
lradius 15.739 -0 0
lwrist -57.7473 0 0
lhand -36.415 42.4817 -0.673047
lfingers 7.12502 -0 0
lthumb -7.42931 66.4437 -1.83795
rclavicle -2.85753e-15 1.39149e-15 0
rhumerus -55.8433 19.093 -98.969
rradius 115.193 -0 0
rwrist -86.5715 180 180
rhand -2.97882 -32.0035 0.355985
rfingers 7.12502 -0 0
rthumb 16.7594 -56.0007 3.84625
2142
root -2.34657 15.2709 -0.361235 -177.765 6.13283 -172.448
lfemur -53.648 18.6798 -23.0662
ltibia 40.1275 -0 0
lfoot 8.90214 19.8684 -0.334283
ltoes 5.25151 -0 0
rfemur 2.72351 -2.42369 26.3438
rtibia 42.5305 -0 0
rfoot -18.308 6.04131 -0.101867
rtoes -29.595 0 0
lowerback 9.4228 0.893572 0.720428
upperback -2.20479 1.73137 3.73037
thorax -7.58977 0.959317 3.30494
lowerneck -5.99208 -1.3283 -5.87783
upperneck 8.98509 -1.62256 3.5074
head 3.98365 -0.86218 2.02086
lclavicle -2.85753e-15 1.39149e-15 0
lhumerus 57.0119 -7.85675 98.2915
lradius 16.5015 -0 0
lwrist -56.7663 0 0
lhand -36.4068 42.0877 -0.73528
lfingers 7.12502 -0 0
lthumb -7.26771 66.2104 -1.84248
rclavicle -2.85753e-15 1.39149e-15 0
rhumerus -55.1645 18.8487 -98.4162
rradius 116.138 -0 0
rwrist -86.8324 180 180
rhand -0.89449 -31.804 0.386377
rfingers 7.12502 -0 0
rthumb 17.597 -55.0367 4.33116
2143
root -2.32449 15.2751 -0.618161 -178.193 5.50386 -172.729
lfemur -52.6703 18.3631 -22.9817
ltibia 40.5726 -0 0
lfoot 7.93426 20.0211 -0.354714
ltoes 4.35679 -0 0
rfemur 1.439 -2.27502 25.8724
rtibia 42.7777 -0 0
rfoot -17.2726 6.02015 -0.122168
rtoes -28.7506 0 0
lowerback 9.5728 0.824166 0.414757
upperback -2.13593 1.59726 3.70747
thorax -7.58584 0.902392 3.47926
lowerneck -6.0257 -1.40722 -5.89768
upperneck 9.2527 -1.75005 3.53334
head 4.06972 -0.932652 2.01278
lclavicle -2.85753e-15 1.39149e-15 0
lhumerus 56.8943 -8.75441 97.658
lradius 17.3756 -0 0
lwrist -55.6603 0 0
lhand -36.375 41.7066 -0.7919
lfingers 7.12502 -0 0
lthumb -7.10769 66.1406 -1.81026
rclavicle -2.85753e-15 1.39149e-15 0
rhumerus -54.3696 18.6198 -97.8093
rradius 117.061 -0 0
rwrist -87.1781 180 180
rhand 1.28862 -31.6033 0.410668
rfingers 7.12502 -0 0
rthumb 18.4764 -54.0446 4.81591
2144
root -2.30241 15.2792 -0.875087 -178.635 4.83726 -173.022
lfemur -51.6194 18.0214 -22.889
ltibia 41.0706 -0 0
lfoot 6.9177 20.1669 -0.371909
ltoes 3.3878 -0 0
rfemur 0.0617648 -2.12539 25.3794
rtibia 43.0525 -0 0
rfoot -16.195 5.98488 -0.142433
rtoes -27.846 0 0
lowerback 9.73038 0.754635 0.0949876
upperback -2.06276 1.45962 3.681
thorax -7.58112 0.843997 3.65856
lowerneck -6.05734 -1.49421 -5.91967
upperneck 9.52562 -1.88963 3.56252
head 4.1575 -1.00924 2.00545
lclavicle -2.85753e-15 1.39149e-15 0
lhumerus 56.6823 -9.70033 96.998
lradius 18.3549 -0 0
lwrist -54.4364 0 0
lhand -36.3204 41.3387 -0.842761
lfingers 7.12502 -0 0
lthumb -6.94904 66.2204 -1.74508
rclavicle -2.85753e-15 1.39149e-15 0
rhumerus -53.4651 18.4028 -97.1523
rradius 117.958 -0 0
rwrist -87.6057 180 180
rhand 3.56005 -31.4022 0.428266
rfingers 7.12502 -0 0
rthumb 19.3999 -53.0208 5.2996
